<svg xmlns="http://www.w3.org/2000/svg" xmlns:xlink="http://www.w3.org/1999/xlink" width="500" zoomAndPan="magnify" viewBox="0 0 375 374.999991" height="500" preserveAspectRatio="xMidYMid meet" version="1.0"><metadata><ContainsAiGeneratedContent>Yes</ContainsAiGeneratedContent></metadata><defs><g/><clipPath id="14ee643981"><path d="M 13 10 L 365 10 L 365 361.5 L 13 361.5 Z M 13 10 " clip-rule="nonzero"/></clipPath><clipPath id="691193df56"><path d="M 19.105469 15.464844 L 360.355469 15.464844 L 360.355469 356.714844 L 19.105469 356.714844 Z M 19.105469 15.464844 " clip-rule="nonzero"/></clipPath><clipPath id="de137f1cf9"><path d="M 52.765625 108.023438 L 290.402344 108.023438 L 290.402344 263.214844 L 52.765625 263.214844 Z M 52.765625 108.023438 " clip-rule="nonzero"/></clipPath><clipPath id="f47d0b45f6"><path d="M 115.28125 110.40625 L 327 110.40625 L 327 267.710938 L 115.28125 267.710938 Z M 115.28125 110.40625 " clip-rule="nonzero"/></clipPath><clipPath id="1c1dc6d10b"><path d="M 115 110 L 116.429688 110 L 116.429688 264.273438 L 115 264.273438 Z M 115 110 " clip-rule="nonzero"/></clipPath><clipPath id="36215264b1"><path d="M 264 206 L 329.367188 206 L 329.367188 269.835938 L 264 269.835938 Z M 264 206 " clip-rule="nonzero"/></clipPath><clipPath id="11948699d4"><path d="M 311.941406 220.460938 L 331.816406 220.460938 L 331.816406 276.710938 L 311.941406 276.710938 Z M 311.941406 220.460938 " clip-rule="nonzero"/></clipPath></defs><g clip-path="url(#14ee643981)"><path fill="#000000" d="M 188.972656 361.390625 C 184.671875 361.390625 180.375 361.234375 176.085938 360.917969 C 171.796875 360.601562 167.523438 360.125 163.269531 359.496094 C 159.015625 358.863281 154.789062 358.074219 150.59375 357.132812 C 146.394531 356.191406 142.238281 355.09375 138.125 353.84375 C 134.007812 352.59375 129.945312 351.195312 125.929688 349.648438 C 121.917969 348.097656 117.964844 346.402344 114.078125 344.5625 C 110.191406 342.722656 106.375 340.742188 102.632812 338.621094 C 98.890625 336.5 95.230469 334.242188 91.65625 331.851562 C 88.078125 329.460938 84.59375 326.941406 81.203125 324.292969 C 77.8125 321.644531 74.523438 318.875 71.335938 315.984375 C 68.148438 313.09375 65.074219 310.089844 62.109375 306.972656 C 59.140625 303.855469 56.292969 300.632812 53.566406 297.308594 C 50.835938 293.980469 48.234375 290.558594 45.757812 287.039062 C 43.28125 283.519531 40.9375 279.914062 38.726562 276.222656 C 36.515625 272.53125 34.441406 268.761719 32.507812 264.917969 C 30.574219 261.070312 28.785156 257.160156 27.136719 253.183594 C 25.492188 249.207031 23.996094 245.175781 22.644531 241.089844 C 21.296875 237.003906 20.097656 232.871094 19.054688 228.695312 C 18.007812 224.519531 17.117188 220.3125 16.382812 216.070312 C 15.648438 211.832031 15.070312 207.570312 14.648438 203.285156 C 14.226562 199.003906 13.964844 194.707031 13.859375 190.40625 C 13.75 186.101562 13.804688 181.800781 14.015625 177.503906 C 14.226562 173.203125 14.59375 168.917969 15.121094 164.648438 C 15.648438 160.375 16.332031 156.128906 17.171875 151.90625 C 18.011719 147.683594 19.003906 143.5 20.148438 139.351562 C 21.296875 135.203125 22.59375 131.101562 24.042969 127.050781 C 25.492188 123 27.089844 119.003906 28.832031 115.070312 C 30.574219 111.132812 32.460938 107.269531 34.488281 103.472656 C 36.515625 99.675781 38.679688 95.960938 40.980469 92.324219 C 43.285156 88.6875 45.714844 85.140625 48.277344 81.683594 C 50.839844 78.226562 53.527344 74.867188 56.335938 71.609375 C 59.144531 68.351562 62.070312 65.199219 65.109375 62.15625 C 67.136719 60.117188 69.210938 58.128906 71.332031 56.195312 C 73.453125 54.257812 75.625 52.375 77.839844 50.542969 C 80.054688 48.714844 82.3125 46.941406 84.613281 45.222656 C 86.917969 43.503906 89.257812 41.84375 91.644531 40.238281 C 94.027344 38.636719 96.449219 37.09375 98.910156 35.609375 C 101.367188 34.125 103.863281 32.703125 106.394531 31.339844 C 108.921875 29.980469 111.484375 28.683594 114.078125 27.445312 C 116.671875 26.210938 119.292969 25.042969 121.945312 23.933594 C 124.597656 22.828125 127.273438 21.789062 129.972656 20.816406 C 132.675781 19.839844 135.402344 18.933594 138.148438 18.09375 C 140.894531 17.253906 143.660156 16.480469 146.445312 15.777344 C 149.230469 15.074219 152.03125 14.4375 154.847656 13.871094 C 157.660156 13.308594 160.488281 12.808594 163.332031 12.382812 C 166.171875 11.957031 169.019531 11.601562 171.878906 11.3125 C 174.734375 11.027344 177.597656 10.8125 180.46875 10.664062 C 183.335938 10.519531 186.207031 10.445312 189.078125 10.441406 C 191.949219 10.4375 194.820312 10.5 197.691406 10.640625 C 200.558594 10.777344 203.421875 10.984375 206.28125 11.261719 C 209.140625 11.539062 211.988281 11.886719 214.832031 12.304688 C 217.671875 12.722656 220.503906 13.210938 223.320312 13.769531 C 226.136719 14.328125 228.941406 14.953125 231.726562 15.648438 C 234.515625 16.34375 237.28125 17.109375 240.03125 17.9375 C 242.78125 18.769531 245.507812 19.671875 248.214844 20.636719 C 250.917969 21.601562 253.597656 22.632812 256.253906 23.730469 C 258.90625 24.828125 261.53125 25.992188 264.128906 27.21875 C 266.726562 28.445312 269.292969 29.738281 271.824219 31.089844 C 274.359375 32.445312 276.859375 33.859375 279.324219 35.335938 C 281.789062 36.8125 284.214844 38.347656 286.601562 39.945312 C 288.992188 41.539062 291.339844 43.195312 293.648438 44.90625 C 295.953125 46.617188 298.21875 48.382812 300.4375 50.207031 C 302.660156 52.03125 304.832031 53.90625 306.960938 55.835938 C 309.089844 57.765625 311.171875 59.746094 313.199219 61.78125 C 315.230469 63.8125 317.210938 65.894531 319.140625 68.023438 C 321.070312 70.152344 322.945312 72.328125 324.765625 74.550781 C 326.585938 76.773438 328.355469 79.039062 330.0625 81.347656 C 331.773438 83.65625 333.425781 86.007812 335.023438 88.398438 C 336.617188 90.789062 338.152344 93.214844 339.625 95.683594 C 341.101562 98.148438 342.515625 100.648438 343.867188 103.183594 C 345.222656 105.71875 346.511719 108.289062 347.738281 110.886719 C 348.964844 113.484375 350.125 116.113281 351.222656 118.769531 C 352.320312 121.425781 353.351562 124.105469 354.316406 126.8125 C 355.28125 129.519531 356.179688 132.25 357.011719 135 C 357.839844 137.753906 358.605469 140.523438 359.300781 143.3125 C 359.996094 146.101562 360.621094 148.90625 361.175781 151.722656 C 361.734375 154.542969 362.222656 157.375 362.640625 160.21875 C 363.058594 163.0625 363.40625 165.914062 363.683594 168.777344 C 363.960938 171.636719 364.167969 174.503906 364.304688 177.375 C 364.441406 180.246094 364.507812 183.117188 364.503906 185.992188 C 364.5 188.867188 364.425781 191.738281 364.28125 194.609375 C 364.132812 197.480469 363.917969 200.34375 363.632812 203.203125 C 363.34375 206.0625 362.988281 208.914062 362.5625 211.757812 C 362.136719 214.601562 361.640625 217.429688 361.074219 220.246094 C 360.507812 223.066406 359.875 225.867188 359.171875 228.65625 C 358.46875 231.441406 357.695312 234.210938 356.855469 236.957031 C 356.015625 239.707031 355.109375 242.433594 354.136719 245.136719 C 353.164062 247.839844 352.125 250.519531 351.019531 253.171875 C 349.914062 255.824219 348.742188 258.449219 347.507812 261.046875 C 346.277344 263.640625 344.976562 266.203125 343.617188 268.734375 C 342.257812 271.265625 340.835938 273.761719 339.355469 276.226562 C 337.871094 278.6875 336.328125 281.109375 334.726562 283.496094 C 333.125 285.882812 331.464844 288.226562 329.746094 290.53125 C 328.03125 292.832031 326.257812 295.09375 324.429688 297.3125 C 322.601562 299.527344 320.71875 301.699219 318.785156 303.820312 C 316.847656 305.945312 314.863281 308.019531 312.824219 310.046875 C 308.777344 314.117188 304.539062 317.980469 300.113281 321.632812 C 295.683594 325.285156 291.085938 328.710938 286.320312 331.90625 C 281.550781 335.105469 276.636719 338.058594 271.578125 340.769531 C 266.519531 343.480469 261.339844 345.933594 256.039062 348.132812 C 250.734375 350.332031 245.339844 352.261719 239.847656 353.925781 C 234.351562 355.589844 228.792969 356.976562 223.160156 358.089844 C 217.53125 359.203125 211.859375 360.035156 206.148438 360.585938 C 200.4375 361.136719 194.710938 361.40625 188.972656 361.390625 Z M 188.972656 17.34375 C 95.980469 17.34375 20.328125 93.046875 20.328125 186.105469 C 20.328125 279.164062 95.980469 354.859375 188.972656 354.859375 C 281.964844 354.859375 357.605469 279.15625 357.605469 186.105469 C 357.605469 93.050781 281.957031 17.34375 188.972656 17.34375 Z M 188.972656 17.34375 " fill-opacity="1" fill-rule="nonzero"/></g><g clip-path="url(#691193df56)"><path fill="#ffffff" d="M 360.351562 186.085938 C 360.351562 188.878906 360.285156 191.667969 360.148438 194.457031 C 360.007812 197.246094 359.804688 200.03125 359.53125 202.8125 C 359.257812 205.589844 358.914062 208.359375 358.503906 211.121094 C 358.09375 213.882812 357.617188 216.636719 357.074219 219.375 C 356.527344 222.113281 355.917969 224.835938 355.238281 227.542969 C 354.558594 230.253906 353.816406 232.945312 353.003906 235.617188 C 352.195312 238.289062 351.320312 240.9375 350.378906 243.566406 C 349.4375 246.195312 348.433594 248.800781 347.363281 251.382812 C 346.296875 253.960938 345.164062 256.511719 343.96875 259.039062 C 342.777344 261.5625 341.519531 264.054688 340.207031 266.515625 C 338.890625 268.980469 337.511719 271.410156 336.078125 273.804688 C 334.640625 276.199219 333.148438 278.558594 331.597656 280.878906 C 330.046875 283.203125 328.4375 285.484375 326.773438 287.726562 C 325.113281 289.96875 323.394531 292.167969 321.621094 294.328125 C 319.851562 296.488281 318.027344 298.601562 316.152344 300.667969 C 314.277344 302.738281 312.351562 304.761719 310.378906 306.734375 C 308.402344 308.710938 306.382812 310.632812 304.3125 312.507812 C 302.242188 314.386719 300.128906 316.207031 297.972656 317.980469 C 295.8125 319.75 293.613281 321.46875 291.371094 323.132812 C 289.125 324.796875 286.84375 326.402344 284.523438 327.953125 C 282.199219 329.503906 279.84375 331 277.445312 332.433594 C 275.050781 333.871094 272.625 335.246094 270.160156 336.5625 C 267.699219 337.878906 265.203125 339.132812 262.679688 340.328125 C 260.15625 341.519531 257.605469 342.652344 255.023438 343.722656 C 252.445312 344.789062 249.839844 345.792969 247.210938 346.734375 C 244.582031 347.675781 241.929688 348.550781 239.257812 349.363281 C 236.585938 350.171875 233.894531 350.917969 231.1875 351.597656 C 228.480469 352.273438 225.753906 352.886719 223.015625 353.429688 C 220.277344 353.976562 217.527344 354.453125 214.765625 354.863281 C 212.003906 355.273438 209.234375 355.613281 206.453125 355.886719 C 203.675781 356.160156 200.890625 356.367188 198.101562 356.503906 C 195.3125 356.640625 192.523438 356.710938 189.730469 356.710938 C 186.9375 356.710938 184.148438 356.640625 181.359375 356.503906 C 178.570312 356.367188 175.785156 356.160156 173.003906 355.886719 C 170.226562 355.613281 167.457031 355.273438 164.695312 354.863281 C 161.933594 354.453125 159.179688 353.976562 156.441406 353.429688 C 153.703125 352.886719 150.980469 352.273438 148.273438 351.597656 C 145.5625 350.917969 142.871094 350.171875 140.199219 349.363281 C 137.527344 348.550781 134.878906 347.675781 132.25 346.734375 C 129.621094 345.792969 127.015625 344.789062 124.433594 343.722656 C 121.855469 342.652344 119.304688 341.519531 116.777344 340.328125 C 114.253906 339.132812 111.761719 337.878906 109.296875 336.5625 C 106.835938 335.246094 104.40625 333.871094 102.011719 332.433594 C 99.617188 331 97.257812 329.503906 94.9375 327.953125 C 92.613281 326.402344 90.332031 324.796875 88.089844 323.132812 C 85.847656 321.46875 83.644531 319.75 81.488281 317.980469 C 79.328125 316.207031 77.214844 314.386719 75.148438 312.507812 C 73.078125 310.632812 71.054688 308.710938 69.082031 306.734375 C 67.105469 304.761719 65.183594 302.738281 63.308594 300.667969 C 61.429688 298.601562 59.609375 296.488281 57.835938 294.328125 C 56.066406 292.167969 54.347656 289.96875 52.683594 287.726562 C 51.019531 285.484375 49.414062 283.203125 47.863281 280.878906 C 46.3125 278.558594 44.816406 276.199219 43.382812 273.804688 C 41.945312 271.410156 40.570312 268.980469 39.253906 266.515625 C 37.9375 264.054688 36.683594 261.5625 35.488281 259.039062 C 34.292969 256.511719 33.164062 253.960938 32.09375 251.382812 C 31.027344 248.800781 30.023438 246.195312 29.082031 243.566406 C 28.140625 240.9375 27.265625 238.289062 26.453125 235.617188 C 25.644531 232.945312 24.898438 230.253906 24.21875 227.542969 C 23.542969 224.835938 22.929688 222.113281 22.386719 219.375 C 21.839844 216.636719 21.363281 213.882812 20.953125 211.121094 C 20.542969 208.359375 20.203125 205.589844 19.929688 202.8125 C 19.65625 200.03125 19.449219 197.246094 19.3125 194.457031 C 19.175781 191.667969 19.105469 188.878906 19.105469 186.085938 C 19.105469 183.292969 19.175781 180.503906 19.3125 177.714844 C 19.449219 174.925781 19.65625 172.140625 19.929688 169.363281 C 20.203125 166.582031 20.542969 163.8125 20.953125 161.050781 C 21.363281 158.289062 21.839844 155.539062 22.386719 152.800781 C 22.929688 150.0625 23.542969 147.335938 24.21875 144.628906 C 24.898438 141.921875 25.644531 139.230469 26.453125 136.558594 C 27.265625 133.886719 28.140625 131.234375 29.082031 128.605469 C 30.023438 125.976562 31.027344 123.371094 32.09375 120.792969 C 33.164062 118.210938 34.292969 115.660156 35.488281 113.136719 C 36.683594 110.613281 37.9375 108.117188 39.253906 105.65625 C 40.570312 103.191406 41.945312 100.765625 43.382812 98.371094 C 44.816406 95.972656 46.3125 93.617188 47.863281 91.292969 C 49.414062 88.972656 51.019531 86.691406 52.683594 84.445312 C 54.347656 82.203125 56.066406 80.003906 57.835938 77.84375 C 59.609375 75.6875 61.429688 73.574219 63.308594 71.503906 C 65.183594 69.433594 67.105469 67.414062 69.082031 65.4375 C 71.054688 63.464844 73.078125 61.539062 75.148438 59.664062 C 77.214844 57.789062 79.328125 55.964844 81.488281 54.195312 C 83.644531 52.421875 85.847656 50.703125 88.089844 49.042969 C 90.332031 47.378906 92.613281 45.769531 94.9375 44.21875 C 97.257812 42.667969 99.617188 41.175781 102.011719 39.738281 C 104.40625 38.304688 106.835938 36.925781 109.296875 35.609375 C 111.761719 34.292969 114.253906 33.039062 116.777344 31.847656 C 119.304688 30.652344 121.855469 29.519531 124.433594 28.453125 C 127.015625 27.382812 129.621094 26.378906 132.25 25.4375 C 134.878906 24.496094 137.527344 23.621094 140.199219 22.8125 C 142.871094 22 145.5625 21.257812 148.273438 20.578125 C 150.980469 19.898438 153.703125 19.289062 156.441406 18.742188 C 159.179688 18.199219 161.933594 17.722656 164.695312 17.3125 C 167.457031 16.902344 170.226562 16.558594 173.003906 16.285156 C 175.785156 16.011719 178.570312 15.808594 181.359375 15.667969 C 184.148438 15.53125 186.9375 15.464844 189.730469 15.464844 C 192.523438 15.464844 195.3125 15.53125 198.101562 15.667969 C 200.890625 15.808594 203.675781 16.011719 206.453125 16.285156 C 209.234375 16.558594 212.003906 16.902344 214.765625 17.3125 C 217.527344 17.722656 220.277344 18.199219 223.015625 18.742188 C 225.753906 19.289062 228.480469 19.898438 231.1875 20.578125 C 233.894531 21.257812 236.585938 22 239.257812 22.8125 C 241.929688 23.621094 244.582031 24.496094 247.210938 25.4375 C 249.839844 26.378906 252.445312 27.382812 255.023438 28.453125 C 257.605469 29.519531 260.15625 30.652344 262.679688 31.847656 C 265.203125 33.039062 267.699219 34.292969 270.160156 35.609375 C 272.625 36.925781 275.050781 38.304688 277.445312 39.738281 C 279.84375 41.175781 282.199219 42.667969 284.523438 44.21875 C 286.84375 45.769531 289.125 47.378906 291.371094 49.042969 C 293.613281 50.703125 295.8125 52.421875 297.972656 54.195312 C 300.128906 55.964844 302.242188 57.789062 304.3125 59.664062 C 306.382812 61.539062 308.402344 63.464844 310.378906 65.4375 C 312.351562 67.414062 314.277344 69.433594 316.152344 71.503906 C 318.027344 73.574219 319.851562 75.6875 321.621094 77.84375 C 323.394531 80.003906 325.113281 82.203125 326.773438 84.445312 C 328.4375 86.691406 330.046875 88.972656 331.597656 91.292969 C 333.148438 93.617188 334.640625 95.972656 336.078125 98.371094 C 337.511719 100.765625 338.890625 103.191406 340.207031 105.65625 C 341.519531 108.117188 342.777344 110.613281 343.96875 113.136719 C 345.164062 115.660156 346.296875 118.210938 347.363281 120.792969 C 348.433594 123.371094 349.4375 125.976562 350.378906 128.605469 C 351.320312 131.234375 352.195312 133.886719 353.003906 136.558594 C 353.816406 139.230469 354.558594 141.921875 355.238281 144.628906 C 355.917969 147.335938 356.527344 150.0625 357.074219 152.800781 C 357.617188 155.539062 358.09375 158.289062 358.503906 161.050781 C 358.914062 163.8125 359.257812 166.582031 359.53125 169.363281 C 359.804688 172.140625 360.007812 174.925781 360.148438 177.714844 C 360.285156 180.503906 360.351562 183.292969 360.351562 186.085938 Z M 360.351562 186.085938 " fill-opacity="1" fill-rule="nonzero"/></g><g clip-path="url(#de137f1cf9)"><path fill="#000000" d="M 52.765625 263.214844 L 87.332031 263.214844 L 101.4375 228.652344 L 127.628906 228.652344 C 134.859375 218.070312 142.707031 208.105469 151.082031 198.671875 L 113.605469 198.671875 L 133.976562 148.761719 L 153.375 196.023438 C 160.957031 187.648438 168.980469 179.710938 177.359375 172.21875 L 150.023438 107.9375 L 118.808594 107.9375 Z M 290.402344 109.171875 L 183.621094 109.171875 L 183.621094 138.886719 L 223.210938 138.886719 C 244.109375 126.453125 266.59375 116.488281 290.402344 109.171875 Z M 290.402344 109.171875 " fill-opacity="1" fill-rule="evenodd"/></g><g clip-path="url(#f47d0b45f6)"><path fill="#000000" d="M 180.972656 263.214844 L 309.269531 263.214844 L 309.269531 233.5 L 224.535156 233.5 L 309.269531 134.917969 L 309.269531 118.519531 C 315.089844 115.695312 321 113.140625 326.996094 110.671875 C 235.113281 127.6875 158.84375 184.738281 115.988281 267.710938 L 174.359375 267.710938 C 176.125 259.953125 178.328125 252.371094 180.972656 245.226562 Z M 257.6875 148.234375 L 187.324219 230.148438 C 202.929688 196.378906 227.707031 169.570312 257.6875 148.234375 Z M 257.6875 148.234375 " fill-opacity="1" fill-rule="evenodd"/></g><path fill="#faab11" d="M 186.792969 230.414062 C 197.550781 210.484375 218.449219 178.214844 255.308594 149.820312 C 282.90625 128.660156 309.800781 116.929688 328.933594 110.40625 C 302.835938 115.078125 253.367188 127.511719 203.28125 164.195312 C 152.757812 201.226562 126.394531 244.785156 114.3125 268.152344 C 134.0625 268.152344 153.902344 268.152344 173.65625 268.152344 C 175.242188 261.277344 177.445312 253.78125 180.355469 245.757812 C 182.472656 240.203125 184.589844 235.085938 186.792969 230.414062 Z M 186.792969 230.414062 " fill-opacity="1" fill-rule="nonzero"/><g clip-path="url(#1c1dc6d10b)"><path fill="#000000" d="M 180.535156 262.953125 L 308.832031 262.953125 C 308.832031 246.550781 295.515625 233.234375 279.113281 233.234375 L 224.09375 233.234375 L 308.832031 134.742188 L 308.832031 118.339844 C 314.648438 115.519531 320.558594 112.960938 326.554688 110.492188 C 234.671875 127.511719 158.402344 184.5625 115.546875 267.535156 L 173.921875 267.535156 C 175.683594 259.777344 177.886719 252.195312 180.535156 245.050781 Z M 257.246094 148.058594 L 186.792969 229.972656 C 202.488281 196.113281 227.265625 169.394531 257.246094 148.058594 Z M 257.246094 148.058594 " fill-opacity="1" fill-rule="evenodd"/></g><g clip-path="url(#36215264b1)"><path fill="#000000" d="M 265.09375 350.953125 L 264.566406 333.492188 L 270.914062 318.148438 L 339.425781 237.554688 C 346.746094 231.824219 355.5625 225.742188 365.792969 219.832031 C 375.667969 214.101562 385.015625 209.78125 393.304688 206.34375 C 393.304688 211.808594 393.304688 217.277344 393.304688 222.742188 L 308.566406 321.324219 L 393.390625 321.324219 L 393.390625 351.039062 L 265.09375 351.039062 Z M 265.09375 350.953125 " fill-opacity="1" fill-rule="nonzero"/></g><path stroke-linecap="butt" transform="matrix(0.194664, -0.724297, 0.724297, 0.194664, 164.307356, 299.869082)" fill="none" stroke-linejoin="miter" d="M 0.00144004 1.500621 L 71.2131 1.50188 " stroke="#ffffff" stroke-width="3" stroke-opacity="1" stroke-miterlimit="4"/><g clip-path="url(#11948699d4)"><path fill="#ffffff" d="M 311.941406 220.460938 L 331.816406 220.460938 L 331.816406 276.742188 L 311.941406 276.742188 Z M 311.941406 220.460938 " fill-opacity="1" fill-rule="nonzero"/></g><g fill="#000000" fill-opacity="1"><g transform="translate(77.921373, 301.403949)"><g><path d="M 14.734375 0 L 13.28125 -4.75 L 6.015625 -4.75 L 4.5625 0 L 0 0 L 7.046875 -20.046875 L 12.21875 -20.046875 L 19.28125 0 Z M 12.265625 -8.296875 L 10.8125 -12.9375 C 10.71875 -13.257812 10.597656 -13.660156 10.453125 -14.140625 C 10.304688 -14.628906 10.15625 -15.125 10 -15.625 C 9.851562 -16.125 9.734375 -16.5625 9.640625 -16.9375 C 9.546875 -16.5625 9.421875 -16.097656 9.265625 -15.546875 C 9.109375 -15.003906 8.957031 -14.484375 8.8125 -13.984375 C 8.675781 -13.492188 8.570312 -13.144531 8.5 -12.9375 L 7.078125 -8.296875 Z M 12.265625 -8.296875 "/></g></g></g><g fill="#000000" fill-opacity="1"><g transform="translate(100.451587, 301.403949)"><g><path d="M 6.34375 0 L 2.1875 0 L 2.1875 -21.25 L 6.34375 -21.25 Z M 6.34375 0 "/></g></g></g><g fill="#000000" fill-opacity="1"><g transform="translate(112.220303, 301.403949)"><g><path d="M 8.4375 -15.5625 C 10.488281 -15.5625 12.054688 -15.117188 13.140625 -14.234375 C 14.234375 -13.359375 14.78125 -12.003906 14.78125 -10.171875 L 14.78125 0 L 11.875 0 L 11.0625 -2.0625 L 10.953125 -2.0625 C 10.304688 -1.25 9.617188 -0.65625 8.890625 -0.28125 C 8.160156 0.09375 7.160156 0.28125 5.890625 0.28125 C 4.535156 0.28125 3.410156 -0.109375 2.515625 -0.890625 C 1.617188 -1.671875 1.171875 -2.894531 1.171875 -4.5625 C 1.171875 -6.175781 1.738281 -7.363281 2.875 -8.125 C 4.007812 -8.894531 5.71875 -9.328125 8 -9.421875 L 10.65625 -9.5 L 10.65625 -10.171875 C 10.65625 -10.972656 10.441406 -11.5625 10.015625 -11.9375 C 9.597656 -12.3125 9.019531 -12.5 8.28125 -12.5 C 7.53125 -12.5 6.800781 -12.390625 6.09375 -12.171875 C 5.382812 -11.960938 4.675781 -11.695312 3.96875 -11.375 L 2.59375 -14.203125 C 3.394531 -14.609375 4.300781 -14.9375 5.3125 -15.1875 C 6.320312 -15.4375 7.363281 -15.5625 8.4375 -15.5625 Z M 10.65625 -7.078125 L 9.03125 -7.015625 C 7.6875 -6.972656 6.753906 -6.726562 6.234375 -6.28125 C 5.710938 -5.84375 5.453125 -5.257812 5.453125 -4.53125 C 5.453125 -3.894531 5.632812 -3.441406 6 -3.171875 C 6.375 -2.898438 6.863281 -2.765625 7.46875 -2.765625 C 8.363281 -2.765625 9.117188 -3.03125 9.734375 -3.5625 C 10.347656 -4.09375 10.65625 -4.84375 10.65625 -5.8125 Z M 10.65625 -7.078125 "/></g></g></g><g fill="#000000" fill-opacity="1"><g transform="translate(132.346656, 301.403949)"><g><path d="M 12.796875 0 L 0.75 0 L 0.75 -2.453125 L 7.828125 -12.078125 L 1.171875 -12.078125 L 1.171875 -15.265625 L 12.546875 -15.265625 L 12.546875 -12.546875 L 5.671875 -3.1875 L 12.796875 -3.1875 Z M 12.796875 0 "/></g></g></g><g fill="#000000" fill-opacity="1"><g transform="translate(149.230573, 301.403949)"><g><path d="M 8.4375 -15.5625 C 10.488281 -15.5625 12.054688 -15.117188 13.140625 -14.234375 C 14.234375 -13.359375 14.78125 -12.003906 14.78125 -10.171875 L 14.78125 0 L 11.875 0 L 11.0625 -2.0625 L 10.953125 -2.0625 C 10.304688 -1.25 9.617188 -0.65625 8.890625 -0.28125 C 8.160156 0.09375 7.160156 0.28125 5.890625 0.28125 C 4.535156 0.28125 3.410156 -0.109375 2.515625 -0.890625 C 1.617188 -1.671875 1.171875 -2.894531 1.171875 -4.5625 C 1.171875 -6.175781 1.738281 -7.363281 2.875 -8.125 C 4.007812 -8.894531 5.71875 -9.328125 8 -9.421875 L 10.65625 -9.5 L 10.65625 -10.171875 C 10.65625 -10.972656 10.441406 -11.5625 10.015625 -11.9375 C 9.597656 -12.3125 9.019531 -12.5 8.28125 -12.5 C 7.53125 -12.5 6.800781 -12.390625 6.09375 -12.171875 C 5.382812 -11.960938 4.675781 -11.695312 3.96875 -11.375 L 2.59375 -14.203125 C 3.394531 -14.609375 4.300781 -14.9375 5.3125 -15.1875 C 6.320312 -15.4375 7.363281 -15.5625 8.4375 -15.5625 Z M 10.65625 -7.078125 L 9.03125 -7.015625 C 7.6875 -6.972656 6.753906 -6.726562 6.234375 -6.28125 C 5.710938 -5.84375 5.453125 -5.257812 5.453125 -4.53125 C 5.453125 -3.894531 5.632812 -3.441406 6 -3.171875 C 6.375 -2.898438 6.863281 -2.765625 7.46875 -2.765625 C 8.363281 -2.765625 9.117188 -3.03125 9.734375 -3.5625 C 10.347656 -4.09375 10.65625 -4.84375 10.65625 -5.8125 Z M 10.65625 -7.078125 "/></g></g></g><g fill="#000000" fill-opacity="1"><g transform="translate(169.356922, 301.403949)"><g><path d="M 6.34375 -21.25 L 6.34375 -16.296875 C 6.34375 -15.722656 6.320312 -15.15625 6.28125 -14.59375 C 6.25 -14.03125 6.210938 -13.59375 6.171875 -13.28125 L 6.34375 -13.28125 C 6.75 -13.914062 7.296875 -14.453125 7.984375 -14.890625 C 8.679688 -15.328125 9.578125 -15.546875 10.671875 -15.546875 C 12.390625 -15.546875 13.78125 -14.878906 14.84375 -13.546875 C 15.90625 -12.210938 16.4375 -10.25 16.4375 -7.65625 C 16.4375 -5.050781 15.894531 -3.078125 14.8125 -1.734375 C 13.726562 -0.390625 12.3125 0.28125 10.5625 0.28125 C 9.445312 0.28125 8.566406 0.0820312 7.921875 -0.3125 C 7.273438 -0.71875 6.75 -1.171875 6.34375 -1.671875 L 6.0625 -1.671875 L 5.359375 0 L 2.1875 0 L 2.1875 -21.25 Z M 9.34375 -12.21875 C 8.257812 -12.21875 7.492188 -11.875 7.046875 -11.1875 C 6.597656 -10.507812 6.363281 -9.492188 6.34375 -8.140625 L 6.34375 -7.6875 C 6.34375 -6.21875 6.5625 -5.085938 7 -4.296875 C 7.4375 -3.503906 8.234375 -3.109375 9.390625 -3.109375 C 10.242188 -3.109375 10.921875 -3.503906 11.421875 -4.296875 C 11.929688 -5.085938 12.1875 -6.226562 12.1875 -7.71875 C 12.1875 -9.207031 11.929688 -10.328125 11.421875 -11.078125 C 10.910156 -11.835938 10.21875 -12.21875 9.34375 -12.21875 Z M 9.34375 -12.21875 "/></g></g></g><g fill="#000000" fill-opacity="1"><g transform="translate(190.293873, 301.403949)"><g/></g></g><g fill="#000000" fill-opacity="1"><g transform="translate(197.807707, 301.403949)"><g><path d="M 10.09375 -11.203125 L 18 -11.203125 L 18 -0.859375 C 16.957031 -0.503906 15.867188 -0.222656 14.734375 -0.015625 C 13.597656 0.179688 12.320312 0.28125 10.90625 0.28125 C 7.914062 0.28125 5.617188 -0.59375 4.015625 -2.34375 C 2.421875 -4.09375 1.625 -6.644531 1.625 -10 C 1.625 -12.09375 2.023438 -13.898438 2.828125 -15.421875 C 3.628906 -16.953125 4.804688 -18.132812 6.359375 -18.96875 C 7.910156 -19.8125 9.804688 -20.234375 12.046875 -20.234375 C 13.109375 -20.234375 14.148438 -20.117188 15.171875 -19.890625 C 16.203125 -19.671875 17.132812 -19.378906 17.96875 -19.015625 L 16.578125 -15.625 C 15.960938 -15.9375 15.265625 -16.195312 14.484375 -16.40625 C 13.703125 -16.613281 12.878906 -16.71875 12.015625 -16.71875 C 10.785156 -16.71875 9.71875 -16.4375 8.8125 -15.875 C 7.914062 -15.3125 7.21875 -14.519531 6.71875 -13.5 C 6.226562 -12.476562 5.984375 -11.285156 5.984375 -9.921875 C 5.984375 -8.617188 6.160156 -7.460938 6.515625 -6.453125 C 6.867188 -5.453125 7.425781 -4.664062 8.1875 -4.09375 C 8.957031 -3.53125 9.957031 -3.25 11.1875 -3.25 C 11.78125 -3.25 12.28125 -3.273438 12.6875 -3.328125 C 13.101562 -3.378906 13.492188 -3.441406 13.859375 -3.515625 L 13.859375 -7.6875 L 10.09375 -7.6875 Z M 10.09375 -11.203125 "/></g></g></g><g fill="#000000" fill-opacity="1"><g transform="translate(221.288291, 301.403949)"><g><path d="M 10.703125 -15.546875 C 10.910156 -15.546875 11.15625 -15.535156 11.4375 -15.515625 C 11.71875 -15.492188 11.941406 -15.46875 12.109375 -15.4375 L 11.796875 -11.515625 C 11.648438 -11.554688 11.453125 -11.585938 11.203125 -11.609375 C 10.960938 -11.640625 10.75 -11.65625 10.5625 -11.65625 C 9.851562 -11.65625 9.171875 -11.53125 8.515625 -11.28125 C 7.867188 -11.03125 7.34375 -10.625 6.9375 -10.0625 C 6.539062 -9.5 6.34375 -8.734375 6.34375 -7.765625 L 6.34375 0 L 2.1875 0 L 2.1875 -15.265625 L 5.34375 -15.265625 L 5.953125 -12.6875 L 6.15625 -12.6875 C 6.601562 -13.46875 7.21875 -14.140625 8 -14.703125 C 8.78125 -15.265625 9.679688 -15.546875 10.703125 -15.546875 Z M 10.703125 -15.546875 "/></g></g></g><g fill="#000000" fill-opacity="1"><g transform="translate(237.221849, 301.403949)"><g><path d="M 16.046875 -7.65625 C 16.046875 -5.125 15.378906 -3.164062 14.046875 -1.78125 C 12.710938 -0.40625 10.898438 0.28125 8.609375 0.28125 C 7.191406 0.28125 5.925781 -0.0234375 4.8125 -0.640625 C 3.707031 -1.253906 2.835938 -2.148438 2.203125 -3.328125 C 1.578125 -4.515625 1.265625 -5.957031 1.265625 -7.65625 C 1.265625 -10.1875 1.925781 -12.132812 3.25 -13.5 C 4.570312 -14.863281 6.382812 -15.546875 8.6875 -15.546875 C 10.125 -15.546875 11.390625 -15.238281 12.484375 -14.625 C 13.585938 -14.007812 14.457031 -13.113281 15.09375 -11.9375 C 15.726562 -10.757812 16.046875 -9.332031 16.046875 -7.65625 Z M 5.5 -7.65625 C 5.5 -6.144531 5.742188 -5.003906 6.234375 -4.234375 C 6.734375 -3.460938 7.546875 -3.078125 8.671875 -3.078125 C 9.765625 -3.078125 10.554688 -3.460938 11.046875 -4.234375 C 11.546875 -5.003906 11.796875 -6.144531 11.796875 -7.65625 C 11.796875 -9.164062 11.546875 -10.296875 11.046875 -11.046875 C 10.554688 -11.804688 9.753906 -12.1875 8.640625 -12.1875 C 7.535156 -12.1875 6.734375 -11.804688 6.234375 -11.046875 C 5.742188 -10.296875 5.5 -9.164062 5.5 -7.65625 Z M 5.5 -7.65625 "/></g></g></g><g fill="#000000" fill-opacity="1"><g transform="translate(257.767477, 301.403949)"><g><path d="M 16.1875 -15.265625 L 16.1875 0 L 13 0 L 12.4375 -1.953125 L 12.21875 -1.953125 C 11.726562 -1.171875 11.054688 -0.601562 10.203125 -0.25 C 9.359375 0.101562 8.460938 0.28125 7.515625 0.28125 C 5.878906 0.28125 4.566406 -0.160156 3.578125 -1.046875 C 2.585938 -1.929688 2.09375 -3.351562 2.09375 -5.3125 L 2.09375 -15.265625 L 6.265625 -15.265625 L 6.265625 -6.34375 C 6.265625 -5.25 6.457031 -4.425781 6.84375 -3.875 C 7.238281 -3.320312 7.863281 -3.046875 8.71875 -3.046875 C 9.988281 -3.046875 10.851562 -3.476562 11.3125 -4.34375 C 11.78125 -5.207031 12.015625 -6.453125 12.015625 -8.078125 L 12.015625 -15.265625 Z M 16.1875 -15.265625 "/></g></g></g><g fill="#000000" fill-opacity="1"><g transform="translate(279.375279, 301.403949)"><g><path d="M 10.671875 -15.546875 C 12.390625 -15.546875 13.78125 -14.878906 14.84375 -13.546875 C 15.90625 -12.210938 16.4375 -10.25 16.4375 -7.65625 C 16.4375 -5.050781 15.882812 -3.078125 14.78125 -1.734375 C 13.6875 -0.390625 12.28125 0.28125 10.5625 0.28125 C 9.46875 0.28125 8.59375 0.0820312 7.9375 -0.3125 C 7.28125 -0.71875 6.75 -1.171875 6.34375 -1.671875 L 6.125 -1.671875 C 6.269531 -0.890625 6.34375 -0.144531 6.34375 0.5625 L 6.34375 6.703125 L 2.1875 6.703125 L 2.1875 -15.265625 L 5.5625 -15.265625 L 6.15625 -13.28125 L 6.34375 -13.28125 C 6.75 -13.894531 7.296875 -14.425781 7.984375 -14.875 C 8.679688 -15.320312 9.578125 -15.546875 10.671875 -15.546875 Z M 9.34375 -12.21875 C 8.257812 -12.21875 7.492188 -11.875 7.046875 -11.1875 C 6.597656 -10.507812 6.363281 -9.492188 6.34375 -8.140625 L 6.34375 -7.6875 C 6.34375 -6.21875 6.5625 -5.085938 7 -4.296875 C 7.4375 -3.503906 8.234375 -3.109375 9.390625 -3.109375 C 10.335938 -3.109375 11.039062 -3.503906 11.5 -4.296875 C 11.957031 -5.085938 12.1875 -6.226562 12.1875 -7.71875 C 12.1875 -10.71875 11.238281 -12.21875 9.34375 -12.21875 Z M 9.34375 -12.21875 "/></g></g></g></svg>